<svg width="65" height="41" viewBox="0 0 65 41" fill="none" xmlns="http://www.w3.org/2000/svg">
<rect width="65" height="41" fill="#34C6BD"/>
<path d="M39.8877 26.0612H38.7803V18.9381C38.7803 18.3457 38.7985 17.7851 38.835 17.2565C38.7393 17.3522 38.6322 17.4524 38.5137 17.5573C38.3952 17.6621 37.8529 18.1064 36.8867 18.8903L36.2852 18.111L38.9307 16.067H39.8877V26.0612ZM43.5859 22.8278V21.7887H46.9424V22.8278H43.5859ZM54.7764 26.0612H48.207V25.0836L50.8389 22.4381C51.641 21.6269 52.1696 21.0481 52.4248 20.7018C52.68 20.3554 52.8714 20.0182 52.999 19.6901C53.1266 19.3619 53.1904 19.0087 53.1904 18.6305C53.1904 18.0973 53.0286 17.6757 52.7051 17.3658C52.3815 17.0514 51.9326 16.8942 51.3584 16.8942C50.9437 16.8942 50.5495 16.9625 50.1758 17.0992C49.8066 17.236 49.3942 17.4843 48.9385 17.8444L48.3369 17.0719C49.2575 16.3063 50.2601 15.9235 51.3447 15.9235C52.2835 15.9235 53.0195 16.165 53.5527 16.6481C54.0859 17.1266 54.3525 17.7714 54.3525 18.5826C54.3525 19.2161 54.1748 19.8427 53.8193 20.4625C53.4639 21.0823 52.7985 21.8662 51.8232 22.8141L49.6357 24.9537V25.0084H54.7764V26.0612Z" fill="white"/>
<path d="M17.3338 18.7818C20.6778 18.7818 23.3983 16.1392 23.3983 12.891C23.3982 9.64265 20.6777 7 17.3338 7C13.9893 7 11.2683 9.64265 11.2683 12.891C11.2683 16.1392 13.9893 18.7818 17.3338 18.7818Z" fill="white"/>
<path d="M25.6364 26.9488L24.5885 21.791C24.4455 21.0879 23.7561 20.5371 23.0188 20.5371H11.6479C10.9106 20.5371 10.2211 21.0879 10.0782 21.7911L9.03024 26.9488C8.89468 27.6157 9.22685 28.4579 9.78645 28.8662C9.96571 28.997 14.2123 32.0695 17.3333 32.0695C20.4544 32.0695 24.701 28.997 24.8802 28.8662C25.4398 28.4579 25.772 27.6157 25.6364 26.9488Z" fill="white"/>
</svg>
